<?xml version="1.0" encoding="UTF-8"?><svg xmlns="http://www.w3.org/2000/svg" viewBox="0 0 921.38 762.16"><g id="hiroshima"><path id="hiroshima-2" d="M222.03,590.13c-14,1.35-26.62,2.79-39.28,3.6-2.46,.16-5.63-1.6-7.52-3.45-8.15-7.93-10.28-8.21-19.39-1.15-5.72-7.66-5.32-15.69,1-22.93,1.17-1.34,1.6-3.39,2.86-4.6,2.78-2.66,4.99-5.83,10.26-3.84,5.05,1.91,10.82,2.05,16.32,2.57,1.24,.12,3.83-1.56,3.77-2.23-.68-7.7,6.6-9.33,10.29-9.57,6.58-.43,13.39,2.34,20.04,4.03,.76,.19,1.57,2.03,1.58,3.11,.11,11.38,.07,22.76,.07,34.47Z"/></g><g id="wakayama"><path id="wakayama-2" d="M308.27,627.28c6.74,0,14.48-.38,22.13,.31,1.61,.14,2.86,4.21,4.28,6.48l-2.2,.04c-1.81,2.86-4.19,5.52-5.3,8.63-1.41,3.94-2.05,8.22-2.44,12.41-.1,1.08,1.81,2.98,3.14,3.4,2.25,.71,4.78,.54,6.29,.67,2.3,4.86,4.24,8.95,6.51,13.75,.26-.83,.23-.62,.14-.45-7.25,13.36-9.79,13.87-21.43,4.3-2.38-1.96-4.87-3.81-7.04-5.98-1.07-1.07-2.52-3.3-2.09-4.07,3.8-6.9-2.19-10.09-5.26-14.18-3.18-4.24-6.85-7.51-.91-12.86,2.45-2.21,2.51-7.08,4.19-12.44Z"/></g><g id="mie"><path id="mie-2" d="M386.31,584.26c7.08,.22,8.51,5.9,10.44,10.23,.71,1.58-1.74,4.62-2.85,6.94-.34,.71-1.03,1.27-1.6,1.87-11.64,12.24-10.82,18.76,3.53,28.59,1.31,.9,3.36,2.1,3.39,3.2,.07,2.85-.16,6.11-1.55,8.44-.74,1.23-4.17,1.12-6.39,1.12-7.5,0-15-.33-22.49-.17-.94,.02-2.54,2.17-2.62,3.42-.44,6.9-5.06,9.78-10.6,12.25-4.61,2.06-8.99,4.65-14.07,7.31-4.71-3.97-4.12-10.13,4.05-12.26,10.84-2.83,11.21-10.52,11.43-18.66,.11-3.98,1.1-6,5.04-7.03,1.83-.48,4.43-2.4,4.54-3.85,.13-1.55-1.91-3.93-3.6-4.83-3.27-1.76-4.08-3.38-2.05-6.73,2.01-3.31-1.78-9.13,4.51-10.74,1.22-.31,2.52-1.06,3.64-.85,10.98,2.01,18.16-4.53,17.11-15.71-.06-.59,.05-1.19,.13-2.53Z"/></g><g id="hyogo"><path id="hyogo-2" d="M285.23,557.9c4.23,.34,5.61-3.13,5.38-8.25-.21-4.67-.04-9.35-.04-15.1,6.19,.66,11.85,1.01,17.38,2.03,1.23,.23,2.86,2.77,2.87,4.26,.02,5,1.05,8.7,7.86,8.01-.08,.54-.15,1.09-.23,1.63-1.16,.68-2.31,1.4-3.49,2.05-1.89,1.03-5.28,1.84-5.41,3.03-.24,2.16,.84,5.2,2.45,6.7,5.86,5.44,12.17,10.4,18.53,15.72-5.02,3.56-7.14,7.04-2.37,12.36,2.57,2.87-2.56,9.73-6.43,10.72-10.44,2.66-17.97-1.29-24.98-8.64-5.08-5.32-12.15-6.89-19.36-6.05-4.31,.5-5.8-1.32-5.66-4.98,.22-6.12,1.79-11.64,7.07-15.67,2.14-1.64,3.55-4.23,6.44-7.82Z"/></g><g id="shiga"><path id="shiga-2" d="M359.73,600.29c-4.35-5.37-6.43-11.78-3.05-19.64,1.59-3.7,1.77-8.01,2.86-13.31,1.03-1.11,3.21-3.45,5.48-5.89,6.52,2.93,12.79-.63,13.87-8.27,8.23,4.91,10.41,10.79,6.82,19.39-1.83,4.39-2.87,8.37-1.89,13.47,1.88,9.82-5.39,15.93-14.78,13.81-2.47-.56-5.24,.2-9.29,.44Z"/></g><g id="okayama"><path id="okayama-2" d="M280.39,560.75c-9.3,6-11.98,14.24-10.89,24.23,.11,1-.55,2.59-1.36,3.08-5.07,3.09-10.14,6.27-15.53,8.7-2.08,.93-5.22,.59-7.5-.23-6.78-2.44-13.38-5.4-20.05-8.15-.39,.47-.78,.94-1.18,1.41-.2-3.03-.6-6.06-.58-9.09,.06-6.74,.96-13.53,.33-20.2-.71-7.53,5.41-9.27,9.5-10.33,4.56-1.18,6.95-3.44,9.44-6.69,.92-1.2,2.56-1.84,4.13-2.91,1.64,2.57,2.93,4.89,4.51,7,2.2,2.95,5.03,4.3,8.56,2.25,3.91-2.27,6.92-1.98,7.27,3.11,.62,8.89,6.76,7.98,13.34,7.81Z"/></g><g id="yamaguchi"><path id="yamaguchi-2" d="M130,558.4c-1.12,5.57-3.41,10.23,2.75,13.18,.47,.23,.29,1.57,.69,2.23,1.49,2.45,2.9,6.64,4.69,6.83,2.86,.29,6.03-2.01,8.99-3.39,.97-.45,1.67-1.45,1.53-1.32,1.17,4.39,2.05,9.01,3.66,13.37,1.83,4.95-.45,12.63-4.95,14.8-4.65,2.24-8.82,.43-12.41-5.29-.64-1.02-1.44-2.46-2.4-2.67-7.69-1.73-15.4-4.13-23.18-4.44-5.39-.22-9.48,.09-11.92-5.75-2.18-5.24-6.03-3.6-11.18,.35,.4-4.62,.27-7.7,1.01-10.55,.98-3.8,2.45-7.52,4.11-11.09,.56-1.2,2.24-2.01,3.56-2.68,.59-.3,1.63,.04,2.36,.34,11.38,4.67,22.47,6.59,32.68-3.9Z"/></g><g id="shimane"><path id="shimane-2" d="M229.61,522.71c-6.48,4.95-6.54,5.54,.59,9.9-2.63,2.42-4.92,4.57-7.27,6.65-1.19,1.06-3.38,1.82-3.61,3.02-1.38,7.05-5.58,5.43-10.17,3.9-5.62-1.88-18.58,1.56-21.51,5.85-.85,1.25-.32,3.44-.5,6.57-5.95-1.33-11.87-2.39-17.62-4.05-3.42-.99-9.95,2.01-12.27,5.32-4.31,6.14-8.98,12.07-13.99,17.65-2.59,2.88-6.14,.99-7.23-2.92-.62-2.24-1.84-4.51-3.38-6.26-2.62-2.97,.57-11.48,5.43-13.39,9.56-3.75,19.3-7.06,28.73-11.09,7.91-3.38,15.52-7.49,23.22-11.37,1.63-.82,3.08-2.03,4.59-3.09,3.18-2.25,6.1-5.88,9.57-6.52,8.31-1.54,16.88-1.68,25.34-2.39l.09,2.23Z"/></g><g id="hokkaido"><path id="hokkaido-2" d="M917.49,82.52c-3.48,5.17-7.01,10.31-10.4,15.54-1.66,2.56-3.54,5.13-4.5,7.97-3.11,9.29-1.65,12.47,8.11,18.62-6.08,3.43-4.24,8.62-1.59,12.33,2.58,3.61,7.12,5.82,12.27,9.79-.41,.18-1.94,.72-3.33,1.5-6.01,3.38-11.93,6.94-18.02,10.16-1.47,.78-3.48,.61-5.25,.76-1.77,.15-3.97-.5-5.27,.32-6.85,4.34-13.47,3.85-20.81,1-3.26-1.26-7.87-.9-11.26,.36-20.37,7.57-36.07,19.6-42.38,42.04-4.52,16.07-4,15.69-17.27,5.36-12.48-9.73-24.34-20.26-36.46-30.46-13.08-11-26.7-11.36-40.32-.55-3.3,2.62-5.59,6.49-8.56,9.57-.99,1.03-2.67,1.41-4.03,2.08-.32-1.45-1.03-2.94-.89-4.35,.88-8.61-2.22-14.87-8.7-17.14-7.51-2.62-14.44,.02-19.05,7.25-6.75,10.59-2.06,20.59,10.8,21.7,5.95,.51,9.2,3.06,12.01,7.94,2.4,4.18,5.89,7.74,8.91,11.59-5.89,6.55-8.06,6.99-15.25,3.05-6-3.29-12.95-1.55-16.59,4.51-2,3.33-2.9,7.43-5.26,10.42-1.96,2.47-5.36,5.26-8.07,5.21-2.12-.04-5.08-3.88-6.08-6.6-2.88-7.85-.49-14.92,4.92-21.07,7.3-8.31,6.73-12.05-3.24-17.38-4.61-2.46-6.85-5.79-6.1-10.91,.71-4.87,1.29-9.81,2.57-14.54,1.48-5.44,3.56-10.36,10.78-10.81,4.18-.26,8.25-2.29,12.42-2.45,3.45-2.97,7.15-5.72,10.23-9.04,1.23-1.32,1.71-4.01,1.42-5.91-.53-3.42-2.42-6.66-2.73-10.07-.25-2.75,1-5.64,1.58-8.46,2.63,.72,5.41,1.12,7.84,2.26,1.78,.83,3,2.8,4.67,3.96,2.17,1.51,4.53,3.8,6.85,3.85,4.93,.12,8.48,1.3,11.8,5.34,1.15,1.4,6.4,.91,8.77-.46,5.32-3.07,6.37-8.59,6.07-14.53-.29-5.87-.26-11.76-.04-17.63,.18-4.91,2.59-8.15,7.92-8.47,5.91-.36,7.66-4.13,8.59-9.4,1.17-6.58,2.62-13.24,5.02-19.45,4.78-12.37,5.49-24.71,2.35-37.52-1.31-5.35-2.48-10.87-2.66-16.34-.19-5.94,2.65-11.01,8.62-12.92,5.88-1.88,9.91,1.66,12.77,6.31,6.68,10.84,13.77,21.49,19.52,32.81,5.5,10.84,13.87,18.78,22.65,26.56,5.55,4.91,11.37,9.5,16.89,14.44,1.91,1.71,3.16,4.14,4.92,6.04,1.18,1.27,2.57,2.66,4.14,3.18,4.77,1.56,9.6,3.33,14.53,3.85,3.77,.39,4.84,1.94,6.2,5.1,2.99,6.93,11.92,9.33,18.01,4.7,6.86-5.22,13.05-11.31,19.66-16.86,2.61-2.19,5.59-3.93,8.39-5.87l1.89,1.75Z"/></g><g id="tottori"><path id="tottori-2" d="M271.17,557.7c-.78-2.87-1.24-5.28-2.09-7.56-1.53-4.1-4.29-6.33-8.52-3.6-4.39,2.83-6.77,.71-8.95-2.81-4.12-6.66-6.83-6.49-12.26-.66-4.27,4.59-10.26,6.61-16.47,7.44-.78,.1-1.72-.96-4.12-2.41,2.83-2.73,5.25-4.98,7.57-7.35,1.54-1.58,3.32-3.1,4.31-5.01,3.62-6.99,8.19-8.97,15.68-6.36,2.13,.74,4.36,1.3,6.35,2.32,10.9,5.65,22.45,5.38,34.45,3.32,.44,5.46,1.13,10.3,1.16,15.15,.04,7.72-7.43,4.97-11.21,7.38-1.43,.92-3.94,.15-5.89,.15Z"/></g><g id="toyama"><path id="toyama-2" d="M440.34,481.7c-5.31,9.83,2.02,11.09,6.6,13.95,4.32,2.7,8,2.89,11.93-1.51,2.44-2.73,6.55-3.96,10.97-6.46,2.26,9.92,4.57,17.94-2.35,25.19-.42,.44-.75,.99-1.06,1.51q-5.59,9.4-15.98,5.2c-1.33-.54-2.69-1.04-4.06-1.47-6.79-2.12-13.46-3.68-17.35,4.59-6.21-3.8-7.79-8.55-5.58-15.06,3.23-9.51,3.95-20.41,16.88-25.95Z"/></g><g id="yamanashi"><path id="yamanashi-2" d="M491.37,609.68c-7.77-8.98-8.92-17.22-7.83-27.15,1.05-9.66,.12-19.08,12.41-22.55,.38,6.85,6.04,6.49,11.75,6.81,7.93,.43,19.77,11.11,20.98,18.45,.15,.93-.08,2.04-.45,2.94-2.16,5.34-15.24,13.05-20.82,11.77-2.29-.52-4.12-2.87-6.29-4.17-1.48-.89-3.21-1.92-4.78-1.85-.75,.03-1.64,2.4-2.05,3.83-.98,3.42-1.72,6.91-2.93,11.94Z"/></g><g id="aichi"><path id="aichi-2" d="M412.86,627.15c3.35-1.1,6.86-1.9,10.01-3.43,1.9-.92,3.25-2.98,4.85-4.53-1.97-1.46-3.88-3.01-5.93-4.32-.59-.38-1.61-.09-2.43-.12-4.25-.15-9.71,1.42-7.73-6.62q-5.35,2.46-6.26,11.52c-.49-1.95-1.47-3.92-1.37-5.83,.22-4.35,1.17-8.66,1.41-13,.07-1.32-.87-3.46-1.94-3.94-5.97-2.7-5.72-6.53-2.9-11.42,3.32-5.76,7.34-7.9,12.48-5.99,1.51,.56,2.91,1.5,4.23,2.46,5.67,4.1,11.08,8.59,17.03,12.22,1.95,1.19,5.24,.19,8.35,.19,.35,8.46,8.53,3.07,13.27,6.22-1.85,2.43-3.3,4.82-5.21,6.77-5.88,6.02-11.23,12.95-18.14,17.44-5.23,3.4-12.54,3.6-18.92,5.22l-.79-2.84Z"/></g><g id="shizuoka"><path id="shizuoka-2" d="M511.87,621.82c-1.67-2.59-2.8-6.45-5.02-7.24-3.29-1.17-8.12-1.49-10.95,.15-10.03,5.81-19.16,12.93-26.5,22.16-.81,1.02-4.01,.77-5.85,.23-4.27-1.24-8.34-3.17-12.58-4.52-3.62-1.15-7.2-1.95-7.49-6.79-.11-1.91-.81-3.78-1.31-5.99,8.9-4.89,13.22-21.41,29.61-23.54,4.33-.56,6.47-3.86,6.61-8.42,.06-1.87,.94-3.7,1.44-5.56,.62,.09,1.24,.18,1.86,.27-.53,2.95-.93,5.93-1.62,8.84-.78,3.28-1.87,6.29,2.31,8.42,1.21,.62,1.12,3.43,2.19,4.77,1.79,2.23,4.04,4.09,6.09,6.1,1.58-2.14,3.56-4.11,4.62-6.48,1.04-2.33,1.14-5.08,2-9.35,5.02,9.82,12.96,7.22,20.76,7.26-.39,1.89-1.04,3.4-.94,4.85,.28,3.89-.33,8.6,1.64,11.44,3.23,4.67,3.53,9.26,.99,13.22-3.37,5.25-8.06,9.69-12.48,14.18-.48,.49-4.29-1.05-4.26-1.46,.54-6.46,1.23-12.93,2.51-19.28,.23-1.14,3.21-1.72,6.37-3.27Z"/></g><g id="gifu"><path id="gifu-2" d="M385.32,579.82c1.28-3.13,3.46-6.44,3.86-9.96,.43-3.78-.7-7.77-1.38-11.63-.32-1.83-2.19-4.57-1.61-5.14,1.73-1.71,4.33-3.55,6.56-3.52,4.89,.06,9.76,1.22,14.63,1.98,7.69,1.2,10.15-.41,8.93-7.81-1.03-6.28-.58-11.47,3.41-16.51,1.28-1.62,1.39-4.17,2.22-6.88,1.09,1.02,2.12,1.62,2.62,2.52,2.06,3.68,4.98,3.37,6.82,.56,3.75-5.73,8.55-4.74,13.54-2.95,4.79,1.71,9.43,3.85,14.42,5.91-1.34,4.88-2.48,9.19-3.72,13.48-1.64,5.68-4.9,9.5-10.86,11.51-7.37,2.48-6.7,3.93-2.66,10.11,4.2,6.43,8.78,13.54,5.88,22.24-2.81,8.45-8.11,10.19-15.24,5.15-5.09-3.59-10.33-6.98-15.61-10.29-6.92-4.34-14.23-2.35-18.38,4.83-.7,1.2-1.41,2.4-1.8,3.06-3.93-2.25-7.54-4.31-11.65-6.65Z"/></g><g id="nigata"><path id="nigata-2" d="M550.45,503.43c-2.3-7.9-7.09-5.55-10.4-3.01-3,2.3-4.66,6.36-6.48,9.01-3.91,1.08-7.66,2.11-11.79,3.24-.22-3.11-.28-6.31-.72-9.46-1.14-8.25-6.5-11.32-14.12-8.09-2.64,1.12-4.98,3.25-7.69,3.79-2.76,.55-6.3,.61-8.61-.69-8.87-4.99-8.74-5.23-15.62,2.88-.73-4.24-1.36-7.9-2.2-12.74,10.29-2.6,20.24-5.75,30.43-7.53,11.98-2.09,20.48-9.62,27.6-17.97,7.88-9.23,16.24-16.5,27.96-20.11,11.86-3.65,19.48-11.76,22.53-24.02,.83-3.33,2.41-6.47,3.84-10.23,3.99,2.39,6.61,4.31,6.04,9.27-.23,1.96,2.2,4.49,3.87,6.35,2.52,2.79,2.19,4.74-1.17,6.1-7.82,3.17-12.55,12.29-11.33,21.06,.29,2.12-.82,4.63-1.82,6.7-2.26,4.68-4.86,9.2-7.37,13.87-3.77,.47-8.47,1.46-13.19,1.52-5.13,.06-6.71,2.83-7.28,7.18-.62,4.74-4.2,9.19-.33,14.35,1,1.34-.61,4.63-1.03,7.03-.38,.49-.76,.98-1.13,1.48Z"/></g><g id="nagano"><path id="nagano-2" d="M444.79,595.72c10.46-14.37,6.56-26.96-3.39-39.57,1.11-.71,2.27-1.97,3.65-2.26,8.24-1.75,11.96-7.64,13.53-15.06,2.16-10.24,7.39-18.85,13.24-27.23,2.65-3.79,5.39-7.55,7.68-11.55,2.15-3.76,4.47-3.76,7.36-1.15,5.21,4.72,10.66,4.18,16.49,1.16,11.98-6.19,15.94-3.63,15.6,9.9-.03,1-.16,2-.2,2.51-4.19,2.11-8.68,3.31-11.59,6.13-2.64,2.57-4.53,6.85-4.77,10.51-.1,1.48,5.04,3.33,7.82,4.96,.68,.4,1.46,.6,2.96,1.19-3.77,9.15-8.54,18.28-1.34,28.3-6.18,.7-11.61,2.78-13.52-5.07-.21-.88-3.72-2.11-4.39-1.56-5.66,4.6-13.1,8.07-12.16,17.43,.15,1.54-.97,3.25-1.67,4.81-1.3,2.85-2.68,5.66-4.11,8.44-.98,1.9-1.67,4.69-3.26,5.42-8.37,3.85-17.1,6.02-27.92,2.69Z"/></g><g id="nara"><path id="nara-2" d="M328.17,655.71c.23-3.27,.12-6.56,.77-9.69,.61-2.93,.29-6.68,5.03-7.33,1-.14,1.87-3.37,2.27-5.29,1.96-9.41,3.74-18.85,5.59-28.28,.56,.48,1.12,.97,1.67,1.45,3.4,.56,6.78,1.3,10.21,1.64,4.13,.41,7.26,1.01,4.21,6.29-2.01,3.48-.91,6.25,2.78,8.06,1.36,.67,2.51,1.79,4.62,3.35-2.3,.66-3.55,1.11-4.84,1.37-4,.82-6.16,2.95-5.81,7.29,.16,2.03,.27,4.21-.27,6.13-1.5,5.33-2.89,9.71-9.6,12.43-5.86,2.38-10.79,4.06-16.64,2.56Z"/></g><g id="kyoto"><path id="kyoto-2" d="M340.02,552.29c-1.2,9.77,2.94,14.75,12.21,16.13,4.98,.74,4.56,4.97,3.08,8.27-5.6,12.51-2.85,17.75,3.76,27.98-8.56,3.36-11.26,1.72-13.59-6.64-1.13-4.08-1.17-9.61-7.93-10.19-1.81-.16-3.33-3.55-5.36-5.88,2.59-4.33-.32-6.71-3.99-9.42-5.3-3.92-10.17-8.44-15.08-12.86-.84-.76-1.01-2.27-1.53-3.56,2.96-.56,5.65-.41,7.38-1.62,1.27-.89,2.05-3.75,1.65-5.4-.34-1.4-2.76-2.23-4.1-3.48-1.26-1.18-2.85-2.44-3.26-3.95-.26-.94,1.24-3.31,2.22-3.48,5.99-1.06,12.06-1.67,19.57-2.61-1.32,4.41-3.28,7.98-3.2,11.51,.09,4.07,2.27,7.7,8.17,5.2Z"/></g><g id="osaka"><path id="osaka-2" d="M330.11,583.82c2.2,3.44,4,6.25,6.05,9.45,.95-.36,2.34-.89,4.92-1.88,.45,3.71,1.79,7.32,1.08,10.47-1.32,5.88-4.28,11.39-5.71,17.27-1.02,4.2-2.01,6.37-7.09,5.97-7.83-.61-15.74-.16-24.15-1.06,2.41-1.13,4.75-2.47,7.26-3.34,2.9-1,6.11-1.21,8.89-2.44,4.54-2,7.72-5.14,7.61-10.8-.07-3.69,.89-7.38,1.11-11.09,.21-3.53,.04-7.08,.04-12.55Z"/></g><g id="fukui"><path id="fukui-2" d="M342.28,551.61c10.71,6.66,19.75,4.93,28.31-2.06,.39-.32,.96-.78,1.36-.71,7.21,1.41,6.15-3.61,5.22-7.37-2.88-11.64,0-17.92,10.58-23.17,6.99,5.05,13.62,9.68,20.05,14.59,2.03,1.55,4.16,3.58,5.11,5.86,3.54,8.52,1.22,11.35-7.65,9.92-3.45-.56-6.91-1.76-10.32-1.63-3.26,.13-6.43,1.74-9.69,2.49-2.72,.62-6.11,.12-8.1,1.61-2.08,1.56-2.63,5.04-4.3,7.35-.67,.92-3.21,1.76-3.8,1.28-5.27-4.3-6.19-.12-8.97,3.25-1.74,2.1-6.96,2.63-10.13,1.87-2.78-.67-5.28-3.85-7.15-6.46-.99-1.39-.37-3.93-.51-6.82Z"/></g><g id="iwate"><path id="iwate-2" d="M695.46,401.35c-9.34-5.65-9.65-5.55-14.39,4.35-1.65,3.45-8.63,3.79-11.58,.75-5.01-5.16-10.16-10.19-15.39-15.41,0-5.08,.33-11.42-.09-17.71-.44-6.51-1.3-12.84,5.12-17.24,.78-.53,1.45-1.59,1.68-2.52,2.3-9.37,4.89-18.69,6.6-28.16,1.44-7.97,2.47-9.35,10.82-10.5,9.72-1.35,19.41-2.95,29.1-4.58,3.72-.63,5.59,.34,6.29,4.39,2.14,12.34,5.65,24.53,6.8,36.95,1.85,20.03-7.68,37.85-24.95,49.68Z"/></g><g id="ishikawa"><path id="ishikawa-2" d="M413.54,534.11c-7.87-7.26-17.45-8.83-21.07-17.53,8.17-6.21,16-12.04,23.68-18.05,6.38-4.99,8.71-11.59,9.5-19.76,.75-7.77,3.76-15.42,6.49-22.86,1.65-4.5,5.52-5.95,10.61-5.02,3.51,.64,7.28-.11,10.93-.28,3.1-.14,6.2-.34,10.15-.57-5.22,9.43-12.86,13.28-21.39,14.75-3.84,.66-6.17,1.6-5.65,5.2,.3,2.05,2.75,3.79,5.16,6.86-.04,.04-1.03,1.88-2.46,2.34-8.78,2.83-13.28,9.37-15.45,17.7-2.01,7.71-3.2,15.64-5.2,23.36-1.12,4.33-3.17,8.42-5.28,13.87Z"/></g><g id="miyagi"><path id="miyagi-2" d="M616.69,449.89c11.43-3.46,13.94-13.37,18.19-21.1,4.55-8.27,9.06-17.17,7.67-27.49-.44-3.26,6.82-7.78,9.86-5.83,5,3.21,9.21,7.63,14.07,11.1,2.75,1.97,6.01,3.81,9.27,4.35,3.78,.63,6.79-1.08,8.24-5.52,2.12-6.51,3.43-6.57,8.89-1.58-.61,1.2-1.07,2.59-1.9,3.71-5.84,7.78-8.37,16.39-6.88,26.1,.21,1.4,.32,3.01-.17,4.27-.61,1.55-1.91,2.82-2.9,4.22-1.17-1.01-2.68-1.81-3.45-3.06-4.85-7.88-9.02-8.9-16.53-3.73-8.15,5.62-11.68,13.92-13.55,23.84-5.43-2.1-6.14,2.49-7.7,6.39-3.28-3.57-5.81-7.42-9.33-9.83-3.64-2.49-8.25-3.58-13.78-5.83Z"/></g><g id="aomori"><path id="aomori-2" d="M712.29,306.76c-12.79,1.91-23.99,3.58-36.37,5.43,.57-2.84,1.5-5.64,1.57-8.45,.06-2.41-.11-5.69-1.59-7.04-1.48-1.35-4.98-1.6-7.11-.88-3.52,1.19-5.21,1.32-8.2-1.96-2.08-2.28-7.72-1.93-11.71-1.73-6.13,.3-12.22,1.49-17.66,2.21-1.16-4.6-1.94-7.61-2.66-10.63-.96-4,4.92-9.56,10.01-9.5,11.72,.14,17.79-9.03,12.8-19.7,1.53-2.14,3.14-4.39,4.23-5.9,3.75,.71,7.28,.89,10.35,2.16,1.7,.7,3.67,3.18,3.73,4.93,.19,4.9-.85,9.84-.77,14.76,.04,2.26,1.56,4.49,2.41,6.74,2.42-1.9,4.97-3.66,7.17-5.79,.68-.65,.39-2.31,.83-5.71,2.71,3.17,4.32,5.09,5.97,6.97,1.38,1.57,2.75,4.27,4.21,4.33,1.62,.07,3.9-1.95,4.92-3.65,2.43-4.03,4.74-8.25,6.29-12.68,2.33-6.68-.71-9.95-7.68-8.75-2.42,.41-4.78,1.2-7.15,1.89-2.11,.62-4.2,1.35-6.29,2.03-1.81-6.09,3.01-18.43,7.91-20.16,1.87-.66,4.56-.33,6.39,.55,1.89,.92,3.66,2.81,4.67,4.71,2.92,5.5,6.3,8.75,13.24,4.64-1.17,2.46-2.22,4.99-3.53,7.38-6.56,11.88-8.89,24.65-8.32,38.07,.25,5.96,1.77,10.99,8.49,12.65,.86,.21,1.53,1.19,3.86,3.11Z"/></g><g id="yamagata"><path id="yamagata-2" d="M587.5,405.36c1.74-1.49,2.87-2.7,4.22-3.58,8.43-5.48,14.01-13.13,17.46-22.49,1.58-4.3,4.36-4.74,7.74-1.83,3.06,2.63,6.23,5.27,9.74,7.21,10.82,5.96,16.15,18.64,11.33,30.01-3.99,9.41-7.55,19.8-14.24,27.02-5.52,5.95-10.82,10.77-11.73,19.16-.09,.81-2.68,2.18-3.77,1.91-4.53-1.13-10.13-.08-12.69-5.9-.45-1.01-2.8-1.45-4.33-1.66-5.33-.74-7.35-4.3-6.03-8.78,1.73-5.83,1.45-13.6,10.79-14.3,1.16-.09,3.49-5.73,2.72-6.63-3.41-4.02-4.6-8.6-5.92-13.44-.63-2.32-3.16-4.12-5.28-6.69Z"/></g><g id="akita"><path id="akita-2" d="M631.23,297.15c7.1-1.17,14.77-2.65,22.5-3.56,1.75-.2,4.65,1.08,5.43,2.53,2.43,4.56,5.53,3.92,9.38,2.52,1.7-.62,4.89-1.05,5.37-.29,1,1.58,1.14,4.13,.73,6.09-.93,4.51-1.75,8.84-6.49,11.88-2.19,1.4-2.23,6.21-3.18,9.5-1.62,5.6-3.16,11.22-4.79,16.82-.45,1.56-1.78,3.22-1.49,4.58,.92,4.32-1.21,6.94-3.97,9.68-5.5,5.46-3.56,12.38-2.73,18.71,1.11,8.54-.54,15.1-5.81,18.35-4.88,3.01-7.57,1.94-10.6-2.89-2.07-3.3-5.08-6.09-8-8.75-2.81-2.57-5.95-4.83-9.11-6.97-1.77-1.2-3.9-1.87-6.46-3.05,2.51-3.79,5.28-7.72,7.78-11.82,4.71-7.71,8.02-15.81,5.78-25.14-1.26-5.24-3.35-9.29-10.01-8.32-1.39,.2-3.27-1.19-4.47-2.32-.49-.46-.11-2.97,.44-3.21,1.51-.63,3.71-1.28,4.94-.62,3.83,2.06,6.29,.27,7.49-2.75,2.75-6.91,4.91-14.05,7.28-20.99Z"/></g><g id="fukushima"><path id="fukushima-2" d="M629.58,526.03c-2.11-1.71-3.86-3.12-5.59-4.55-3.18-2.64-6.26-3.16-8.97,.58-2.56,3.51-5.1,2.36-6.8-.44-2.45-4.04-4.95-8.26-6.24-12.75-2.07-7.16-10.3-11.28-17.31-8.7-8.37,3.08-16.98,5.58-25.62,7.82-4.87,1.26-6.23-.61-5.04-5.72,1.05-4.51,3.98-9.17-1.41-12.69,1-2.16,1.89-3.77,2.52-5.49,.88-2.41,.92-6.4,2.45-7.04,3.81-1.6,8.42-2.74,12.42-2.15,5.44,.81,7.36-.46,8.02-5.89,.88-7.24,6.48-12.29,11.88-11.42,1.59,.26,3.07,1.45,4.51,2.36,1.84,1.16,3.41,3.03,5.39,3.62,12.61,3.74,14.04,2.83,17.86-11.46,4.99,6.06,15.01,3.52,17.47,13,.37,1.43,3.87,3.55,4.4,3.17,2.13-1.49,3.66-3.84,6.44-7.06,1.05,1.94,2.97,3.94,3.14,6.08,2.22,26.79-1.42,34.32-19.52,58.72Z"/></g><g id="tochigi"><path id="tochigi-2" d="M553.76,526.52c1.6-4.65,3-8.92,4.58-13.13,.39-1.05,1.16-2.45,2.06-2.75,7.48-2.51,15.01-4.88,22.58-7.13,3.74-1.11,7.12-3.3,11.53-.43,5.94,3.87,5.79,10.05,6.02,15.3,.21,4.74,2.15,10.73-3.06,14.79-.59,.46-.52,1.92-.55,2.92-.27,11.16-1.59,12.07-12.62,14-5.17,.9-9.96,3.93-16.59,6.69-3.25-2.45-8.87-5.59-12.96-10.12-3.21-3.56-.2-7.88,2.72-10.86,4.92-5.02,4.99-5.2-1.86-8.04-.54-.23-1-.66-1.85-1.23Z"/></g><g id="tokyo"><path id="tokyo-2" d="M526.69,573.56c3,.85,6.52,.97,8.91,2.68,7.46,5.33,15.66,6.81,24.51,6.53,2-.06,4.18,.19,6.02,.94,4.79,1.97,5.38,6.75,1.76,10.49-1.81,1.87-3.12,4.23-4.65,6.36-2.86-2.54-5.61-5.24-8.63-7.58-2.82-2.19-5.88-1.89-9.53-1.79-4.29,.12-9.24-3.12-12.88-6.13-2.93-2.43-4.33-6.69-6.42-10.14,.3-.45,.59-.9,.89-1.36Z"/></g><g id="kanagawa"><path id="kanagawa-2" d="M557.88,602.08c-.65,3.86-1.05,7.79-2.04,11.55-.65,2.48-2.17,4.72-3.3,7.07-.7-.21-1.4-.42-2.1-.63-.33-1.69-.75-3.36-.97-5.07-.92-7.01-5.37-10.75-11.89-8.24-5.81,2.24-10.86,6.44-16.83,10.14-7.22-4.48,3.8-12.14-1.33-17.25,4.29-3.52,8.33-6.83,13.11-10.75,1.17,.78,2.99,2.5,5.14,3.28,2.78,1.01,6.03,2.22,8.73,1.66,7.19-1.5,9.44,4.22,13.42,7.45-.65,.26-1.3,.53-1.94,.79Z"/></g><g id="saitama"><path id="saitama-2" d="M567.86,581.78c-9.46-1.83-18.04-3.18-26.44-5.23-4.86-1.19-9.44-3.54-14.16-5.32-3.54-1.33-7.25-2.3-10.58-4.04-1.42-.74-2.03-3.02-2.46-3.72,7.99-4.74,15.01-9.63,22.68-13.09,2.74-1.24,7.13,.62,10.6,1.66,3.98,1.19,7.63,3.62,11.65,4.5,9.02,1.97,11.3,5.12,9.63,14.42-.53,2.96-.53,6.01-.91,10.82Z"/></g><g id="chiba"><path id="chiba-2" d="M559.75,638.81c.72-4.01,1.37-7.9,2.11-11.77,.69-3.59,1.29-7.22,2.29-10.73,.44-1.55,1.55-3.1,2.76-4.22,3.15-2.92,6.79-5.35,9.72-8.46,1.83-1.94,4.2-5.14,3.67-7.05-.62-2.27-4.09-3.75-6.33-5.57-.54,.31-1.08,.62-1.62,.93-.69-6.75-1.37-13.5-2.06-20.26,.9-.29,1.8-.57,2.7-.86,1.88,2.46,4.19,4.7,5.55,7.41,2.44,4.89,6.31,7.49,11.4,6.59,12.9-2.28,20.66,5.58,29.95,14.44-16.59-3.65-22.57,6.57-27.14,18.02-2.99,7.48-8.94,10.42-15.85,12.2-5.43,1.4-11.05,2.08-13.37,8.36-.17,.47-.91,.8-1.45,1.05-.32,.14-.77,0-2.34-.08Z"/></g><g id="gunma"><path id="gunma-2" d="M555.5,512.49c2.29,5.9-11.83,13.45,1.12,18.52-1.8,4.12-5.03,8.26-4.97,12.35,.06,3.6,3.81,7.14,5.95,10.76-1.57-.64-4.27-1.21-6.35-2.67-9.24-6.48-11.74-6.1-20.52,.15-5.03,3.58-11.29,5.43-17.21,8.16-3.76-4.75-3.42-9.06-1.91-13.45,.8-2.32,1.97-4.5,2.89-6.78,1.85-4.58,.85-7.36-4.54-8.3-6.38-1.11-7.38-4.1-2.94-9,1.97-2.18,4.78-3.88,7.54-5.01,4.65-1.91,9.48-3.5,14.38-4.58,1.89-.42,4.17,.89,6.57,1.49,2.6-4.94,2.02-12.24,10.02-12.98,3.06,3.48,6.3,7.17,9.97,11.35Z"/></g><g id="ibaraki"><path id="ibaraki-2" d="M603.91,521.14c1.74,1.65,2.96,3.52,4.68,4.26,1.79,.77,4.52,1.28,6.03,.45,7.21-3.98,7.11-4.15,13.2,3.45-18.15,17.75-15.97,39.64-10.06,63.24-2.36-1.44-3.28-1.83-3.97-2.46-6.36-5.86-13.65-8.86-22.43-7.72-5.34,.69-8.94-1.37-11.18-6.53-1.09-2.5-3.47-4.5-5.46-6.55-4.51-4.65-4.55-10.11,1.01-13.38,3.9-2.29,8.75-3.32,13.31-4.05,5.34-.86,8.8-3.48,10.06-8.56,1.75-7.06,3.11-14.22,4.81-22.14Z"/></g><g id="miyazaki"><path id="miyazaki-2" d="M41.19,701.66h20.85c-2.17-5.95,6.25-10.91,3.09-18.7-.76-1.87,2.38-5.9,4.51-8.22,2.46-2.67,5.7-4.7,8.78-6.73,5.75-3.79,11.62-2.12,15.92,3.37,1.07,1.36,4.61,1.45,6.84,1.08,3.31-.55,6.47-2.03,9.69-3.12,.54,.48,1.08,.96,1.62,1.45-1.24,2.43-1.86,5.64-3.81,7.15-9.84,7.62-16.81,17.48-22.69,28.16-6.24,11.34-12.02,22.94-18.11,34.36-1.44,2.7-3.04,5.42-5.12,7.6-.88,.92-3.43,1.01-4.78,.44-.79-.34-1.41-3.06-.9-4.13,2.63-5.46,.27-9.09-3.23-13.22-3.84-4.53-8.35-9.17-6.96-16.26,.26-1.31-1.15-2.94-1.8-4.42-1.2-2.73-2.42-5.45-3.9-8.8Z"/></g><g id="oita"><path id="oita-2" d="M98.89,670.51c-3.58-2.2-6.46-3.3-8.38-5.31-2.33-2.44-4.47-5.44-5.52-8.59-.86-2.55,.1-5.68,.09-8.55,0-5.25-.1-10.94-6.43-12.46-6.41-1.55-6.5,4.75-8.56,8.43-.6,.02-1.19,.04-1.79,.07-.23-2.17-1.05-4.48-.57-6.48,1.01-4.16,2.32-8.33,4.21-12.16,2.41-4.89,5.99-8.32,12.29-6.35,1.48,.46,3.97,.78,4.74-.03,6.29-6.59,14.7-1.45,21.78-4.18,4.06-1.57,7.53,1.8,8.68,5.96,1.21,4.37-1.02,7.48-4.97,9.42-.18,.09-.36,.19-.55,.28-3.19,1.49-7.97,1.5-7.77,6.5,.19,5.03,5.09,4.96,8.32,6.88,2.19,1.31,4.1,4.14,4.8,6.66,1.01,3.68,.43,7.77,1.23,11.53,1.1,5.19-.78,8.67-4.9,11.55q-2.52-7.01-16.69-3.16Z"/></g><g id="kumamoto"><path id="kumamoto-2" d="M82.63,661.63c-5.57,4.19-10.48,7.55-15,11.38-3.99,3.37-5.12,7.81-4.99,13.23,.1,4.24-2.1,8.53-3.09,12.15-3.59,.26-6.94,.64-10.29,.69-1.72,.02-4.23,.07-5.05-.96-4.07-5.12-9.34-7.07-15.61-7.19-.7-.01-1.38-.79-2.13-1.25,.11-.69,0-1.48,.33-1.82,5.89-5.93,12.9-10.81,16.55-18.8,.82-1.79,3.01-2.95,4.56-4.4-1.92-1.03-3.83-2.05-5.9-3.16,0,.1-.1-.2,0-.28,7.24-6.31,7.17-6.28,3.82-15.61-.97-2.69-3.14-6.02,1.49-7.67,4.33-1.54,8.66-5.93,13.22-.45,1.97,2.37,3.75,4.89,5.67,7.3,2.92,3.65,4.99,3.51,7.02-1.07,.98-2.2,3.42-3.75,5.2-5.6,1.41,2.52,3.72,4.94,4.03,7.59,.63,5.42,.19,10.96,.19,15.91Z"/></g><g id="kagoshima"><path id="kagoshima-2" d="M15.96,682.73c0,1.77-.42,3.68,.12,5.27,.51,1.51,1.8,3.55,3.11,3.87,5.22,1.25,10.72,1.48,15.83,3.03,1.95,.59,3.25,3.66,4.56,5.78,.45,.73-.09,2.01,.05,3.01,.86,5.84,4.96,10.5,4.64,17.2-.19,3.97,5.19,8.12,7.84,12.34,1.64,2.6,2.85,5.47,3.7,7.12-4.66,1.88-8.72,2.35-10.44,4.6-1.36,1.77,.17,5.74,.51,9.89-4.42,4.44-19.38,8.72-24.73,6.91,3.35-3.28,7.2-6.73,10.67-10.54,3.83-4.2,3.53-9.43-.35-13.87-3.79-4.34-3.91-5.16-.92-9.54,.96,1.67,1.8,3.13,2.86,4.96,4.39-1.08,6.86-4.55,4.52-7.89-1.54-2.21-7.02-3.47-9.91-2.55-6.1,1.95-9.71,9.68-8.92,16.1,.27,2.24,.78,4.46,1.28,6.66,1.4,6.23,.43,7.68-6.74,9.19,1.17-6.32-2.11-8.98-7.69-11.01-2.43-.88-3.63-5.12-5.53-8.05,12.57-5.74,15.35-13.08,10.88-24.6-.65-1.69-1.15-4.63-.26-5.52,5.63-5.62,4.55-11.81,2.57-18.36-.38-1.26,.28-2.83,.46-4.26,.63,.1,1.26,.2,1.89,.29Z"/></g><g id="fukuoka"><path id="fukuoka-2" d="M34.97,603.85c3.29-7.69,7.66-9.13,13.75-4.69,3.03,2.21,4.73,2.77,5.98-1.74,2.17-7.81,6.33-10.55,14.44-9.48,6.76,.9,13.44,2.45,20.64,3.81-.8,2.38-2.33,4.82-2.29,7.24,.05,3.91,.67,7.96,1.89,11.67,1.28,3.91,.44,6.33-3.25,6.34-13.17,.03-15.64,1.89-19.13,14.31-.54,1.91-1.22,3.77-2.25,6.9-5.9-9.56-12.75-4.85-19.27-2.65-3.14-7.6-.51-12.57,6.22-16.09,1.56-.82,3.58-2.41,3.75-3.83,.21-1.78-1.28-3.75-2.03-5.64-6.22,2.92-9.76-3.11-14.71-4.44-1.15-.31-2.21-1-3.73-1.71Z"/></g><g id="saga"><path id="saga-2" d="M52.93,613.26c-3.15,6.44-10.2,10.58-16.68,9.47-4.47-.77-6.11,1.42-6.1,5.38,0,2.15,.47,4.29,.73,6.44-.49,.38-.99,.76-1.48,1.15-2.39-1.82-5.77-3.15-6.99-5.56-3.16-6.21-5.61-12.82-7.86-19.43-1.21-3.55,5.41-12.69,9.22-13.08,1.19-.12,3.61,1.23,3.61,1.91,0,4.24,3.14,5,6.01,6.46,3.96,2,7.55,4.79,11.6,6.51,2.34,.99,5.29,.55,7.94,.76Z"/></g><g id="nagasaki"><path id="nagasaki-2" d="M10.52,605.66c3.16,12.05,6.28,23.56,15.2,31.9-.52,1.92-1.09,4.01-1.67,6.11,1.85,.24,3.86,.11,5.51,.82,2.07,.9,4.6,2.11,5.47,3.9,.66,1.35-.41,4.47-1.74,5.64-2.38,2.1-5.54,3.31-8.71,5.09-.36-1.82-.61-2.28-.48-2.57,1.34-2.88,4.23-6.03,.2-8.61-3.89-2.5-8.16-2.43-12.03,.71-2.47,2-5.06,3.83-8.5,5.48,4.97-7.12,3.73-12.63-2.24-18.05-3.03-2.74-1.47-6.81,4-11.64,.71,4.16,.82,7.84,2.06,11.09,.82,2.14,3.05,3.98,5.07,5.3,.69,.45,3.92-1.2,3.89-1.78-.22-3.93-.04-8.36-1.82-11.61-2.37-4.31-6.53-7.61-9.71-11.51-2.98-3.66-.31-8.77,5.5-10.27Z"/></g><g id="kouchi"><path id="kouchi-2" d="M169,689.92c-.43-.05-.67-.02-.83-.11-3.66-2.12-8.9-3.48-10.45-6.65-1.25-2.54,2.24-7.22,3.12-11.06,.53-2.31,.1-4.84,.1-6.78,3.81-2.3,7.22-5.17,11.15-6.56,6.59-2.34,2.18-7.91,4.4-12.43,8.8,5.76,12.18-.77,16.15-6.95,5.76-8.96,8.69-9.52,19.02-7.19,8.39,1.9,16.58,3.81,23.14,9.82,.28,.26,.82,.6,1.06,.5,7.92-3.48,7.24,.93,6.35,6.43-.25,1.55,1.59,3.62,2.8,5.2,5.89,7.69,5.54,10.69-2.86,17.86-1.39-2.27-2.75-4.42-4.05-6.6-6.83-11.53-15.5-14.75-28.13-10.82-8.33,2.59-15.83,5.74-21.34,13.35-4.18,5.77-10.36,10.07-15.41,15.25-1.71,1.76-2.68,4.24-4.2,6.73Z"/></g><g id="ehime"><path id="ehime-2" d="M140.79,638.21c7.6-2.22,15.22-4.4,22.81-6.66,5.58-1.67,8.63-5.11,11.53-10.63,2.68-5.11,9.67-8.02,14.95-11.61,.34-.23,2.94,1.78,3.53,3.15,3.12,7.33,5.13,8.25,12.94,7.8,3.55-.2,7.2,1.55,10.81,2.37,2.47,.56,4.96,1.05,7.53,1.59,.29,6.66-.61,7.57-7.14,6.62-2.02-.29-4.08-.56-6.04-1.12-10.39-2.95-14.89-1.48-20.85,7.69-3.3,5.09-5.6,10.27-13.68,7.06-4.11-1.63-4.91,2.82-4.11,6,.89,3.57,.05,5.19-3.56,6.29-3.36,1.02-6.8,2.6-9.44,4.83-1.44,1.22-1.25,4.32-1.89,6.55-.58,2-.74,4.77-2.11,5.71-1.24,.85-4.6,.36-5.67-.8-1.16-1.25-1.26-4.04-.93-6,.51-3,1.18-6.3,2.86-8.73,4.12-5.95,.64-11.42-.4-17.02-.15-.82-2.19-1.68-3.44-1.83-2.41-.29-4.87-.08-7.31-.08l-.37-1.17Z"/></g><g id="tokushima"><path id="tokushima-2" d="M252.14,660.49c-2.27-3.35-4.53-6.03-5.99-9.09-.83-1.73,.07-4.23-.59-6.11-.82-2.37-1.95-5.74-3.79-6.43-4.87-1.82-10.19-2.43-15.07-3.47-.44-10.35,5.42-15.09,14.23-12.64,1.76,.49,3.91,1.5,5.35,.93,6.31-2.49,12.32-1.91,18.54,.28,1.41,.5,3.42-.96,5.19-1.16,2.27-.25,4.66-.44,6.82,.08,.5,.12,.31,3.2,.4,4.92,.3,5.51,.47,11.02,.93,16.52,.28,3.45-.73,5.54-4.44,5.83-8.46,.67-15.84,3.78-21.59,10.35Z"/></g><g id="kagawa"><path id="kagawa-2" d="M226.37,621.77c1.67-4.55,3.05-8.29,4.67-12.7,8.26,1.12,16.87-7.8,26.16-1.26,4.18,2.95,7.79,6.73,11.52,10.28,.33,.32-.11,2.24-.66,2.54-1.15,.61-2.92,1.26-3.91,.8-5.77-2.7-11.42-2.71-17.22-.25-.83,.35-1.98-.08-2.98-.07-4.5,.08-8.99,.19-13.49,.32-1.18,.03-2.35,.19-4.08,.33Z"/></g></svg>